<?xml version="1.0" standalone="no"?>
<!DOCTYPE svg PUBLIC "-//W3C//DTD SVG 20010904//EN"
 "http://www.w3.org/TR/2001/REC-SVG-20010904/DTD/svg10.dtd">
<svg version="1.0" xmlns="http://www.w3.org/2000/svg"
 width="276.000000pt" height="314.000000pt" viewBox="0 0 276.000000 314.000000"
 preserveAspectRatio="xMidYMid meet">

<g transform="translate(0.000000,314.000000) scale(0.100000,-0.100000)"
fill="#000000" stroke="none">
<path d="M653 2802 c-202 -122 -344 -272 -443 -470 -88 -175 -124 -329 -123
-527 0 -144 16 -236 65 -373 33 -96 52 -124 81 -120 40 6 42 31 10 109 -59
143 -68 196 -67 399 0 172 2 191 27 275 55 179 135 320 252 444 86 91 166 153
264 206 69 36 76 43 76 70 0 50 -44 46 -142 -13z"/>
<path d="M1917 2843 c-4 -3 -7 -16 -7 -28 0 -17 19 -33 83 -70 210 -122 353
-276 452 -489 123 -263 131 -551 24 -833 -27 -69 -30 -85 -19 -98 7 -9 25 -15
39 -13 20 2 29 14 49 63 217 533 17 1130 -477 1424 -77 47 -127 62 -144 44z"/>
<path d="M1867 2719 c-9 -6 -17 -21 -17 -34 0 -19 10 -30 43 -46 133 -68 270
-190 353 -316 100 -150 144 -287 151 -474 6 -145 -10 -246 -57 -368 -33 -85
-28 -114 18 -109 23 3 31 13 53 68 55 138 64 191 63 380 0 161 -3 182 -28 265
-74 247 -231 454 -437 581 -82 50 -121 64 -142 53z"/>
<path d="M720 2676 c-220 -130 -380 -337 -456 -591 -25 -82 -28 -105 -28 -265
-1 -189 8 -243 63 -379 23 -54 32 -67 53 -69 47 -6 54 21 24 96 -42 107 -57
179 -63 299 -9 172 20 309 96 463 75 152 204 287 360 379 81 49 92 58 89 80
-5 44 -50 39 -138 -13z"/>
<path d="M817 2567 c-218 -123 -357 -302 -424 -548 -13 -46 -18 -103 -18 -204
0 -147 10 -203 57 -323 19 -47 27 -58 50 -60 44 -5 52 25 24 94 -149 367 16
804 372 983 32 16 42 27 42 46 0 14 -8 29 -19 35 -25 13 -17 15 -84 -23z"/>
<path d="M1808 2589 c-10 -5 -18 -21 -18 -34 0 -19 10 -30 43 -46 355 -179
520 -616 371 -983 -27 -67 -20 -96 22 -96 20 0 29 9 46 47 58 132 82 322 59
468 -43 266 -201 492 -432 619 -74 41 -68 39 -91 25z"/>
<path d="M1295 2525 c-14 -13 -25 -30 -25 -38 0 -9 -30 -21 -86 -35 -218 -54
-392 -194 -493 -397 -64 -129 -71 -170 -81 -460 -14 -376 -33 -555 -82 -740
-18 -72 -26 -85 -73 -130 -28 -28 -57 -61 -64 -73 -17 -33 -5 -77 31 -107 l30
-25 899 0 c1005 0 948 -4 970 68 14 47 -5 91 -49 117 -41 25 -68 71 -91 155
-48 175 -68 363 -80 735 -8 255 -9 262 -40 355 -18 52 -45 117 -61 145 -105
181 -273 307 -474 357 -56 14 -86 26 -86 35 0 28 -48 63 -85 63 -25 0 -44 -8
-60 -25z"/>
<path d="M1040 447 c0 -29 63 -138 98 -168 126 -111 308 -111 434 0 35 30 98
139 98 168 0 11 -58 13 -315 13 -257 0 -315 -2 -315 -13z"/>
</g>
</svg>
