<?xml version="1.0" standalone="no"?>
<!DOCTYPE svg PUBLIC "-//W3C//DTD SVG 20010904//EN"
 "http://www.w3.org/TR/2001/REC-SVG-20010904/DTD/svg10.dtd">
<svg version="1.0" xmlns="http://www.w3.org/2000/svg"
 width="880.000000pt" height="700.000000pt" viewBox="0 0 880.000000 700.000000"
 preserveAspectRatio="xMidYMid meet">
<metadata>
Created by potrace 1.16, written by Peter Selinger 2001-2019
</metadata>
<g transform="translate(0.000000,700.000000) scale(0.100000,-0.100000)"
fill="#000000" stroke="none">
<path d="M884 6570 c-212 -55 -362 -196 -448 -420 l-21 -55 -3 -2473 c-3
-2748 -8 -2518 65 -2672 28 -59 54 -93 122 -160 86 -86 151 -126 268 -168 45
-16 267 -17 3501 -19 3849 -3 3523 -10 3682 68 167 82 297 252 335 436 13 64
15 383 13 2525 l-3 2453 -23 65 c-38 104 -80 170 -166 256 -62 62 -99 90 -156
117 -154 73 184 67 -3646 66 -3337 0 -3451 -1 -3520 -19z m6925 -537 c22 -18
12 -27 -1176 -1123 -659 -608 -1263 -1166 -1343 -1240 -532 -495 -546 -505
-692 -536 -134 -29 -302 -1 -406 69 -20 13 -136 111 -257 218 -630 554 -1886
1656 -2599 2282 -193 169 -352 311 -354 315 -1 5 8 14 20 20 17 8 971 11 3404
11 3206 1 3383 0 3403 -16z m-6723 -594 c60 -53 357 -314 659 -579 1124 -986
1485 -1304 1485 -1310 0 -3 -100 -93 -222 -200 -123 -107 -315 -276 -428 -375
-113 -99 -351 -309 -530 -466 -179 -156 -433 -379 -565 -495 -384 -337 -499
-438 -518 -453 -16 -13 -17 96 -17 1988 0 1710 2 2001 14 1994 8 -4 63 -51
122 -104z m6769 -1888 c0 -1083 -3 -1972 -6 -1975 -5 -5 -146 122 -444 399
-60 56 -204 189 -320 295 -115 107 -262 242 -325 300 -141 131 -758 700 -932
859 -69 64 -125 119 -125 122 4 13 2139 1979 2146 1975 3 -2 6 -891 6 -1975z
m-4142 -419 c232 -203 271 -234 356 -276 151 -75 273 -101 454 -93 153 6 239
27 361 88 108 54 145 83 357 278 101 94 187 170 190 168 8 -2 147 -131 1194
-1097 407 -376 828 -764 936 -864 108 -100 195 -183 192 -186 -7 -7 -6693 -6
-6693 1 0 3 82 78 183 166 100 88 243 213 317 279 74 65 261 229 415 364 154
135 426 374 605 531 179 157 459 403 623 547 164 144 303 262 309 262 5 0 96
-76 201 -168z"/>
</g>
</svg>
