<?xml version="1.0"?>
<svg width="880" height="700" xmlns="http://www.w3.org/2000/svg" xmlns:svg="http://www.w3.org/2000/svg" preserveAspectRatio="xMidYMid meet">
 <metadata>Created by potrace 1.16, written by Peter Selinger 2001-2019</metadata>

 <g class="layer">
  <title>Layer 1</title>
  <g fill="#000000" id="svg_1" transform="translate(0.000000,700.000000) scale(0.100000,-0.100000)">
   <path d="m884,6570c-212,-55 -362,-196 -448,-420l-21,-55l-3,-2473c-3,-2748 -8,-2518 65,-2672c28,-59 54,-93 122,-160c86,-86 151,-126 268,-168c45,-16 267,-17 3501,-19c3849,-3 3523,-10 3682,68c167,82 297,252 335,436c13,64 15,383 13,2525l-3,2453l-23,65c-38,104 -80,170 -166,256c-62,62 -99,90 -156,117c-154,73 184,67 -3646,66c-3337,0 -3451,-1 -3520,-19zm6925,-537c22,-18 12,-27 -1176,-1123c-659,-608 -1263,-1166 -1343,-1240c-532,-495 -546,-505 -692,-536c-134,-29 -302,-1 -406,69c-20,13 -136,111 -257,218c-630,554 -1886,1656 -2599,2282c-193,169 -352,311 -354,315c-1,5 8,14 20,20c17,8 971,11 3404,11c3206,1 3383,0 3403,-16zm-6723,-594c60,-53 357,-314 659,-579c1124,-986 1485,-1304 1485,-1310c0,-3 -100,-93 -222,-200c-123,-107 -315,-276 -428,-375c-113,-99 -351,-309 -530,-466c-179,-156 -433,-379 -565,-495c-384,-337 -499,-438 -518,-453c-16,-13 -17,96 -17,1988c0,1710 2,2001 14,1994c8,-4 63,-51 122,-104zm6769,-1888c0,-1083 -3,-1972 -6,-1975c-5,-5 -146,122 -444,399c-60,56 -204,189 -320,295c-115,107 -262,242 -325,300c-141,131 -758,700 -932,859c-69,64 -125,119 -125,122c4,13 2139,1979 2146,1975c3,-2 6,-891 6,-1975zm-4142,-419c232,-203 271,-234 356,-276c151,-75 273,-101 454,-93c153,6 239,27 361,88c108,54 145,83 357,278c101,94 187,170 190,168c8,-2 147,-131 1194,-1097c407,-376 828,-764 936,-864c108,-100 195,-183 192,-186c-7,-7 -6693,-6 -6693,1c0,3 82,78 183,166c100,88 243,213 317,279c74,65 261,229 415,364c154,135 426,374 605,531c179,157 459,403 623,547c164,144 303,262 309,262c5,0 96,-76 201,-168z" id="svg_2"/>
  </g>
  <g id="svg_9"/>
  <text fill="#ff0000" font-family="serif" font-size="24" id="svg_10" stroke-dasharray="null" stroke-linecap="null" stroke-linejoin="null" stroke-width="0" text-anchor="middle" transform="matrix(32.9715 0 0 29.645 -7302.48 -5393.98)" x="244.164926" xml:space="preserve" y="205.1748">!</text>
 </g>
</svg>