<?xml version="1.0" standalone="no"?>
<!DOCTYPE svg PUBLIC "-//W3C//DTD SVG 20010904//EN"
 "http://www.w3.org/TR/2001/REC-SVG-20010904/DTD/svg10.dtd">
<svg version="1.0" xmlns="http://www.w3.org/2000/svg"
 width="888.000000pt" height="980.000000pt" viewBox="0 0 888.000000 980.000000"
 preserveAspectRatio="xMidYMid meet">

<g transform="translate(0.000000,980.000000) scale(0.100000,-0.100000)"
fill="#000000" stroke="none">
<path d="M4277 9785 c-279 -53 -552 -266 -668 -520 -59 -130 -74 -213 -74
-400 1 -164 2 -173 33 -266 18 -53 32 -103 32 -112 0 -10 -19 -21 -57 -32
-105 -30 -336 -126 -483 -201 -497 -251 -889 -645 -1140 -1144 -211 -421 -376
-1092 -515 -2095 -110 -798 -258 -1291 -487 -1622 -59 -85 -199 -225 -348
-349 -299 -247 -371 -324 -439 -467 -73 -156 -104 -279 -121 -489 -13 -156 -5
-335 21 -461 44 -219 166 -361 331 -389 41 -7 555 -13 1453 -17 l1390 -6 17
-115 c50 -342 153 -549 384 -771 98 -94 183 -154 299 -212 192 -95 291 -117
535 -117 247 0 324 17 526 115 403 196 645 557 699 1048 l6 57 1192 0 c656 1
1303 5 1440 9 239 8 249 10 301 35 59 29 137 107 179 179 78 132 106 334 87
618 -12 180 -33 292 -79 418 -66 181 -169 307 -426 519 -210 174 -318 275
-373 350 -249 337 -425 911 -527 1722 -81 640 -252 1432 -382 1765 -253 649
-707 1150 -1308 1445 -88 43 -218 100 -289 125 -159 57 -209 82 -203 100 3 7
20 71 39 141 28 113 32 144 31 249 -2 246 -98 461 -284 641 -120 115 -238 183
-396 230 -112 33 -281 41 -396 19z m236 -610 c141 -37 227 -151 227 -303 0
-82 -23 -132 -91 -201 -70 -69 -119 -91 -205 -91 -85 0 -149 28 -213 91 -64
64 -91 128 -91 214 1 139 88 256 218 291 63 17 87 17 155 -1z m336 -1240 c368
-52 742 -210 1036 -440 242 -189 455 -476 590 -795 144 -339 294 -1018 390
-1765 65 -499 116 -747 234 -1121 186 -592 390 -898 842 -1261 199 -160 245
-206 268 -268 35 -93 61 -245 61 -354 l0 -101 -3835 0 -3835 0 6 73 c18 238
38 340 82 421 22 40 63 79 217 201 216 173 415 371 513 510 169 240 296 535
417 968 92 334 119 471 175 912 79 613 208 1246 331 1618 123 374 359 723 650
957 317 255 759 426 1188 460 153 12 536 4 670 -15z m203 -6755 c-14 -165
-115 -348 -245 -446 -135 -101 -238 -131 -426 -121 -101 5 -109 7 -200 53
-152 77 -261 199 -317 356 -19 54 -44 180 -38 190 3 5 281 7 617 6 l612 -3 -3
-35z"/>
</g>
</svg>
