<?xml version="1.0" standalone="no"?>
<!DOCTYPE svg PUBLIC "-//W3C//DTD SVG 20010904//EN"
 "http://www.w3.org/TR/2001/REC-SVG-20010904/DTD/svg10.dtd">
<svg version="1.0" xmlns="http://www.w3.org/2000/svg"
 width="512.000000pt" height="512.000000pt" viewBox="0 0 512.000000 512.000000"
 preserveAspectRatio="xMidYMid meet">
<metadata>
Created by potrace 1.16, written by Peter Selinger 2001-2019
</metadata>
<g transform="translate(0.000000,512.000000) scale(0.100000,-0.100000)"
fill="#000000" stroke="none">
<path d="M2515 4998 c-11 -6 -138 -107 -282 -225 -202 -164 -269 -213 -290
-213 -23 0 -50 -22 -138 -111 -157 -158 -884 -749 -922 -749 -23 0 -51 -23
-143 -116 -63 -63 -217 -198 -342 -299 -124 -102 -242 -204 -262 -228 l-36
-44 0 -1405 0 -1405 43 -46 43 -47 2364 0 2364 0 43 42 43 42 0 1415 c0 1455
-1 1481 -38 1481 -20 0 -92 59 -92 76 0 8 -7 14 -16 14 -22 0 -94 58 -94 76 0
8 -7 14 -16 14 -22 0 -94 58 -94 76 0 8 -8 14 -18 14 -23 0 -92 57 -92 76 0 8
-7 14 -17 14 -21 0 -102 61 -103 78 0 6 -5 12 -12 12 -16 0 -97 63 -98 76 0 7
-10 15 -22 18 -26 7 -88 61 -88 76 0 5 -6 10 -13 10 -19 0 -97 62 -97 77 0 7
-6 13 -13 13 -19 0 -97 62 -97 77 0 7 -7 13 -16 13 -20 0 -94 61 -94 78 0 6
-7 12 -16 12 -20 0 -94 60 -94 77 0 7 -7 13 -16 13 -20 0 -94 60 -94 77 0 7
-7 13 -16 13 -20 0 -94 60 -94 77 0 7 -7 13 -16 13 -20 0 -94 60 -94 77 0 7
-7 13 -16 13 -22 0 -94 58 -94 76 0 8 -7 14 -16 14 -22 0 -94 58 -94 76 0 8
-7 14 -16 14 -22 0 -94 58 -94 76 0 8 -8 14 -18 14 -23 0 -92 57 -92 76 0 8
-8 14 -18 14 -23 0 -92 57 -92 76 0 8 -8 14 -18 14 -23 0 -92 57 -92 76 0 8
-9 14 -20 14 -23 0 -90 56 -90 76 0 8 -8 14 -18 14 -10 0 -27 7 -38 15 -23 17
-61 19 -89 3z m156 -300 c21 -17 39 -37 39 -45 0 -7 7 -13 16 -13 20 0 94 -60
94 -77 0 -7 7 -13 16 -13 22 0 94 -58 94 -76 0 -8 8 -14 18 -14 23 0 92 -57
92 -76 0 -8 7 -14 17 -14 21 0 102 -61 103 -77 0 -7 6 -13 13 -13 19 0 97 -62
97 -77 0 -7 7 -13 16 -13 20 0 94 -60 94 -77 0 -7 7 -13 16 -13 20 0 94 -60
94 -77 0 -7 7 -13 16 -13 22 0 94 -58 94 -76 0 -8 8 -14 18 -14 23 0 92 -57
92 -76 0 -8 8 -14 18 -14 23 0 92 -57 92 -76 0 -8 8 -14 18 -14 26 0 91 -52
92 -72 0 -12 8 -18 23 -18 26 -1 87 -53 87 -75 0 -8 9 -15 21 -15 24 0 89 -49
89 -67 0 -7 7 -13 16 -13 20 0 94 -60 94 -77 0 -7 7 -13 16 -13 22 0 94 -58
94 -76 0 -8 7 -14 16 -14 22 0 94 -58 94 -76 0 -8 7 -14 17 -14 21 0 102 -61
103 -77 0 -7 6 -13 14 -13 8 0 28 -12 45 -26 28 -23 31 -32 30 -77 l0 -52
-284 -227 c-217 -174 -291 -228 -312 -228 -22 0 -53 -25 -153 -124 -76 -74
-255 -227 -455 -387 -181 -145 -347 -281 -370 -301 -28 -26 -49 -38 -70 -38
-25 0 -50 -20 -150 -121 -66 -66 -154 -149 -196 -185 l-77 -64 -63 0 c-53 1
-69 5 -91 25 -16 13 -28 28 -28 33 0 6 -10 13 -22 16 -26 7 -88 61 -88 76 0 5
-6 10 -13 10 -19 0 -97 62 -97 77 0 7 -7 13 -16 13 -20 0 -94 61 -94 78 0 6
-7 12 -16 12 -20 0 -94 60 -94 77 0 7 -7 13 -16 13 -20 0 -94 60 -94 77 0 7
-7 13 -16 13 -20 0 -94 60 -94 77 0 7 -7 13 -16 13 -22 0 -94 58 -94 76 0 8
-7 14 -16 14 -22 0 -94 58 -94 76 0 8 -8 14 -18 14 -23 0 -92 57 -92 76 0 8
-8 14 -18 14 -23 0 -92 57 -92 76 0 8 -9 14 -20 14 -23 0 -90 56 -90 76 0 8
-8 14 -18 14 -26 0 -91 52 -92 73 0 10 -8 17 -18 17 -26 0 -91 52 -92 73 0 11
-8 17 -22 17 -27 1 -88 53 -88 75 0 8 -9 15 -21 15 -24 0 -89 49 -89 68 0 6
-7 12 -16 12 -20 0 -94 61 -94 78 0 6 -7 12 -16 12 -20 0 -94 60 -94 77 0 7
-7 13 -16 13 -8 0 -33 14 -55 32 -37 30 -39 34 -39 87 l0 56 108 106 c59 59
270 238 469 398 281 226 368 291 390 291 22 0 53 25 153 124 172 171 849 716
889 716 15 0 36 9 46 20 13 15 31 20 67 20 40 0 56 -6 89 -32z m-2204 -2014
c18 -14 33 -32 33 -40 0 -7 7 -14 16 -14 22 0 94 -58 94 -76 0 -8 7 -14 17
-14 21 0 102 -61 103 -77 0 -7 5 -13 12 -13 17 0 97 -63 98 -77 0 -7 6 -13 13
-13 19 0 97 -62 97 -77 0 -7 6 -13 13 -13 19 0 97 -62 97 -77 0 -7 7 -13 16
-13 20 0 94 -60 94 -77 0 -7 7 -13 16 -13 20 0 94 -60 94 -77 0 -7 7 -13 16
-13 22 0 94 -58 94 -76 0 -8 8 -14 18 -14 23 0 92 -57 92 -76 0 -8 8 -14 18
-14 23 0 92 -57 92 -76 0 -8 8 -14 18 -14 10 0 28 -7 40 -16 20 -14 23 -23 20
-72 l-3 -56 -295 -252 c-240 -205 -301 -253 -325 -253 -25 -1 -54 -25 -175
-147 -80 -80 -216 -206 -302 -280 -156 -134 -157 -134 -207 -134 l-51 0 0
1095 0 1095 52 0 c39 0 59 -6 85 -26z m4323 -1079 l0 -1076 -57 3 c-49 3 -60
7 -68 26 -5 12 -17 22 -25 22 -17 1 -90 65 -90 80 0 6 -5 10 -11 10 -18 0 -89
60 -89 76 0 8 -7 14 -16 14 -23 0 -94 62 -94 83 0 10 -8 17 -20 17 -23 0 -90
56 -90 76 0 8 -7 14 -16 14 -22 0 -94 58 -94 76 0 8 -7 14 -16 14 -20 0 -94
61 -94 78 0 6 -6 12 -13 12 -19 0 -87 59 -87 76 0 8 -7 14 -16 14 -23 0 -94
61 -94 82 0 12 -7 18 -22 18 -24 0 -88 56 -88 77 0 7 -8 13 -18 13 -23 0 -92
57 -92 76 0 8 -7 14 -16 14 -19 0 -94 61 -94 76 0 7 -9 14 -20 17 -17 4 -20
14 -20 59 l0 54 65 52 c43 35 74 52 92 52 23 0 50 22 138 111 67 68 260 233
498 425 310 251 394 314 417 314 16 0 32 5 35 10 3 6 31 10 61 10 l54 0 0
-1075z m-1508 -142 c10 -9 18 -22 18 -30 0 -7 7 -13 16 -13 20 0 94 -60 94
-77 0 -7 8 -13 18 -13 18 -1 92 -64 92 -80 0 -6 6 -10 13 -10 19 0 87 -59 87
-76 0 -8 7 -14 16 -14 23 0 94 -62 94 -82 0 -12 8 -18 22 -18 24 0 88 -56 88
-77 0 -7 8 -13 18 -13 23 0 92 -57 92 -76 0 -8 7 -14 16 -14 20 0 94 -60 94
-76 0 -6 10 -15 23 -18 25 -7 87 -61 87 -76 0 -5 5 -10 11 -10 18 0 89 -60 89
-76 0 -8 7 -14 16 -14 23 0 94 -62 94 -82 0 -11 8 -18 20 -18 10 0 35 -14 55
-31 32 -28 35 -36 35 -85 l0 -54 -1925 0 -1925 0 0 53 c0 51 2 54 57 108 32
31 266 232 521 448 365 308 468 391 490 391 21 0 44 17 97 70 67 68 71 70 118
70 40 0 57 -6 88 -31 21 -17 39 -37 39 -45 0 -8 7 -14 17 -14 20 0 102 -61
103 -76 0 -7 10 -15 23 -18 25 -7 87 -61 87 -76 0 -5 6 -10 13 -10 19 0 97
-62 97 -77 0 -7 7 -13 16 -13 20 0 94 -60 94 -76 0 -8 21 -15 56 -20 l56 -7
82 82 c45 44 167 150 271 235 l190 155 54 0 c37 1 60 -4 73 -16z"/>
</g>
</svg>
